<svg xmlns="http://www.w3.org/2000/svg" width="667" height="640" fill="none"><path fill="#2C2C2C" d="M163.687 409.957c-12.494.575-31.62-.553-31.62-.553-1.537-1.055-3.534-3.89-.887-8.6 1.711-3.681 5.535-4.104 5.535-4.104l26.972-4.135s-3.975 4.472 0 17.392Z"/><path fill="#fff" d="M444.937 622.138c-8.944 0-14.41 2.484-15.404 3.478l2.485 2.484 3.478.994c-.166 1.325.199 3.975 2.982 3.975 2.782 0 2.815-2.981 2.484-4.472h3.975c.497 1.325 1.988 3.975 3.976 3.975 1.987 0 2.816-3.312 2.981-4.969l24.846-4.472c.331.994 1.59 2.982 3.975 2.982s2.981-3.313 2.981-4.969l4.473-1.491c.993 1.159 3.478 3.279 5.466 2.484 1.987-.795 2.153-3.644 1.987-4.969l6.46-3.975c.497.331 1.888.894 3.478.497 1.591-.398 1.326-3.147.994-4.472 1.325-.994 3.876-3.18 3.479-3.975-.497-.994-4.97-2.485-9.442-1.988-4.472.497-24.348 12.423-29.317 13.913-4.969 1.491-17.392 4.97-26.337 4.97Z"/><path fill="#2C2C2C" d="M452.403 560.515c-2.807 13.936.985 30.312.985 30.312-.002 4.713-9.425 8.205-14.911 5.969-4.261-1.392-3.492-9.741-3.492-9.741l-6.689-26.54s9.911 5.068 24.107 0ZM375.02 103.828c9.788-3.556 30.347-6.312 36.775-9.41 6.428-3.095-.4-17.254-22.06-13.084-21.66 4.17-25.107 26.255-14.715 22.494Z"/><path fill="#fff" d="M389.781 91.437c-9.442 2.485-16.398 12.92-19.877 24.349l2.982 1.987c.994-1.987 8.447-17.888 29.317-20.373 16.697-1.988 22.527 9.441 23.355 15.404.994-2.981 2.982-7.95-2.484-14.907-9.79-12.46-23.852-8.945-33.293-6.46Z"/><path fill="#2C2C2C" d="M308.652 96.418c-7.839 5.65-11.378 16.702-8.072 15.842 3.305-.86 6.222-5.733 8.913-7.913 2.691-2.181 4.52-4.459 4.739-7.484.205-2.693-1.201-3.599-5.58-.445Zm12.642 5.029c.981 1.812 9.732 3.164 11.966-.705 1.9-3.39 4.109-6.886 15.82-9.846 11.71-2.96 6.341-5.98 1.06-6.332-5.281-.35-36.455 2.773-28.846 16.883Zm150.131 21.455c.066 5.739-2.301 16.778-1.852 20.712.448 3.933 9.25 3.52 11.071-8.384 1.82-11.903-9.282-18.42-9.219-12.328Z"/><path stroke="#fff" stroke-linecap="round" stroke-linejoin="round" d="M475.058 126.924c2.673 9.666-.814 14.653-.814 14.653"/><path fill="#2C2C2C" d="M163.687 409.957c-12.494.575-31.62-.553-31.62-.553-1.537-1.055-3.534-3.89-.887-8.6 1.711-3.681 5.535-4.104 5.535-4.104l26.972-4.135s-3.975 4.472 0 17.392Zm208.58-337.4c-8.413-9.378-15.879-11.802-22.735-7.953-6.856 3.85-2.981 5.466-2.981 5.466s-7.323-.086-5.466 5.466c4.969 2.982 3.352-1.276 19.379 2.485s16.492-.23 11.803-5.464Zm-73.915 167.11h.258c2.113 1.973 3.261 4.845 3.245 8.112-.017 3.267-1.198 6.719-3.336 9.752-2.139 3.032-5.356 4.955-8.616 6.334-4.305 1.154-10.955.495-14.223-2.773 4.286-3.561 6.274-5.178 10.177-7.947 3.8-4.879 8.52-8.66 12.495-13.478Z"/><path stroke="#fff" d="M227.789 635.341c10.274-2.875 21.339 0 38.726 0s17.387 4.025 38.726 0c21.338-4.025 28.451 4.025 45.838 0 17.388-4.025 22.13 4.601 42.678 2.3m160.999-62.178c3.014 2.156 6.261 0 11.363 0 5.101 0 5.101-3.019 11.362 0s8.348-3.019 13.45 0c5.102 3.019 6.493-3.451 12.522-1.725"/><path fill="#fff" d="M140.334 386.602s-4.969-4.472-10.932-4.472c-6.957 0-10.605 5.697-15.992 9.452-5.386 3.754-11.352-.286-23.76 5.952-8.805 4.413-16.85 17.533-17.892 24.845 0 0-5.33 1.211-5.962.498-.497-4.97 5.125-17.291 12.423-24.349 7.3-7.058 9.94-8.944 18.386-10.932 6.369-1.499 8.904-2.657 13.417-5.466 3.663-2.241 6.46-7.454 13.417-7.454 3.478 0 9.441 0 11.926 3.479 2.426 1.274 3.975 6.459 4.969 8.447Z"/><path fill="#2C2C2C" d="M458.355 418.901c-.397-3.578-4.803-4.141-6.957-3.975l2.485 10.932c1.656-.828 4.87-3.379 4.472-6.957Zm-63.108 17.392c1.59-1.988 8.945-6.791 12.423-8.944l7.453 16.895c-.662.165-3.279.695-8.447 1.49-6.46.994-10.435-1.987-12.423-2.981-1.987-.994-.993-3.975.994-6.46Z"/><path fill="#00A140" d="M457.36 174.256c-3.298 3.865-13.191 3.312-18.139 20.428 2.199 12.699 7.145 22.085 8.933 28.378 1.51 15.24-4.643 41.896-6.734 52.784-2.761 14.404-3.848 18.22-1.1 29.263 2.749 8.281 7.039 22.045 7.695 24.845-10.443 1.104-31.879 9.938-41.223 9.938-7.146 0-15.94-1.656-21.437-7.177-10.443-10.491-24.184 1.469-32.429-3.313-10.993-7.73-13.523-14.516-11.543-17.668 1.981-3.152 30.487-29.262 28.583-32.575-3.491-6.073-8.307.552-9.894-2.209-1.099-1.912 10.783-8.834 8.245-13.25-1.555-2.705-8.795.512-10.993-3.313-2.199-3.825 4.397-4.969 1.099-13.251-1.099-2.761-4.998-8.237 0-12.699 4.947-4.417 21.436 3.053 21.436-5.521 0-6.626-12.936-1.104-14.84-4.417-2.199-3.825 16.571-2.761 14.84-9.248-1.6-6-10.867-2.218-14.84 0 0 0 4.96-16.859-14.844 7.039-4.951 6.016-21.987 25.398-25.833 30.367-4.956-1.331-22.98-13.774-21.978-18.22 1.003-4.446 10.291-9.386 17.59-22.085 4.945-6.073 12.092-20.526 27.482-32.672 6.86-5.415 20.881-12.05 20.881-12.05 16.496 22.085 36.283 19.812 43.978 14.355 7.695-5.456 8.795-14.306 5.497-20.98 1.649-1.656 26.238-17.116 29.125-19.877 3.298 3.865 10.443 33.128 10.443 33.128Z"/><path fill="#FF006B" d="M386.692 147.311a6.904 6.904 0 0 0 4.305-3.05 6.885 6.885 0 0 0-2.167-9.501 6.894 6.894 0 0 0-5.201-.882 6.893 6.893 0 0 0-5.192 8.25 6.893 6.893 0 0 0 8.255 5.183Zm36.286-7.793a51.46 51.46 0 0 1-4.623 9.321 5.585 5.585 0 0 1-4.518-8.04 5.595 5.595 0 0 1 4.233-3.053 5.592 5.592 0 0 1 4.908 1.772Z"/><path stroke="#fff" stroke-linecap="round" stroke-linejoin="round" d="M283.902 118.356c11.296 5.757 19.253.17 21.301-2.758 2.921-4.183 4.663-11.156 10.673-11.934 4.916-.637 8.425 5.018 16.123.134"/><path stroke="#fff" stroke-linecap="round" stroke-linejoin="round" d="M283.535 118.344c5.676-1.052 12.772-5.989 12.486-9.333-.378-4.388-4.742-6.605 1.318-11.277 4.573-4.326 13.157-8.986 12.188-8.798 0 0-7.309-.018-4.723-2.165 2.135-1.778 9.549-3.458 9.549-3.458M311.47 99.2c-7.233 3.091-9.146 8.57-9.146 8.57m4.713-25.175c7.223-4.267 27.484-3.265 28.602-5.062 1.118-1.797-8.123-1.085-2.945-7.428 5.178-6.342 12.548-12.804 25.2-13.477 10.451-.556 18.919 4.134 18.461 16.235M323.59 95.555c3.534 5.301 7.606.8 8.594-1.472.987-2.273-.496-2.734-1.557-2.085-2.127 1.294 1.245 4.736 4.52 3.01 3.414-1.791 5.946-11.123 16.295-6.47"/><path stroke="#fff" stroke-linecap="round" stroke-linejoin="round" d="M347.182 72.876c10.118-2.508 17.122-1.542 22.33 3.77m-52.129 30.018c5.641 4.955 15.948 3.063 20.43-2.645 3.945-5.026 8.601-14.126 23.671-13.53m5.027 32.828c3.251-.869 6.183 2.314 6.283 4.461m52.202-5.347c.862 3.847 2.717 3.108 4.23 3.223 3.727.282-1.349 6.697 3.221 6.959m-9.672 5.165c-.008.106-.5 6.603 3.016 8.056m-50.117-4.635s-2.529 4.228-9.743 5.634c-2.178.556 7.817 1.95 5.298 3.335-4.146 2.295-5.932 4.627.681 3.955"/><path fill="#FF006B" stroke="#FF006B" stroke-linecap="round" stroke-linejoin="round" d="M383.22 78.457s-4.048.928-10.166 5.972c-4.312 3.56-5.51 7.71-7.162 11.566-1.017-1.307-1.797-3.51-2.953-5.067A25.057 25.057 0 0 1 368.2 80.34c2.429-2.7 5.578-4.71 9.113-5.82a64.955 64.955 0 0 0 5.907 3.937Z"/><path fill="#2C2C2C" d="M451.662 468.5c3.113-4.169 5.869-6.848 9.785-8.621l1.239 9.426c1.105 9.225-1.239 7.735-2.87 16.679.422 1.284.97 9.357.172 11.2 0 0-6.314-1.735-8.445-2.962-1.706-.982-4.765-4.708-5.296-6.375-.532-1.666-.674-3.636-.42-5.797.254-2.16.9-4.469 1.902-6.794a33.514 33.514 0 0 1 3.933-6.756ZM344.477 347.674s3.193 7.403-.991 13.087c-4.185 5.683-14.865-16.782-14.865-16.782s-2.457 2.029-6.731 3.693c-2.092 1.02-11.157 9.164-12.561 10.981-7.548 7.75-11.329 1.759-16.443 4.594 7.995-9.699 13.821-16.579 17.39-20.373 12.983-13.798 22.542-21.494 26.16-25.017l2.683 4.099 3.908 4.336c2.641 2.126 11.879 11.542 18.729 17.876 6.85 6.334-17.279 3.506-17.279 3.506Zm-56.59 84.585c-8.246 4.157-21.293 8.937-33.049 5.362-4.182-1.084-13.645-2.973-16.971-5.485 1.749-4.15 5.843-8.582 10.088-11.022 4.246-2.44 9.338-3.686 14.618-3.577 5.281.11 10.509 1.569 15.007 4.191 4.499 2.622 8.063 6.285 10.232 10.516l.075.015Zm122.843-60.518s6.336 2.107 4.385 5.571c-1.95 3.464-8.867 1.259-9.289 1.139.456.522 9.714 11.057 5.396 13.274-4.318 2.216-9.606-7.663-9.743-6.302-.137 1.36-3.107 10.904-6.304 12.097-6.173-3.537.996-23.035.996-23.035l-2.436.026a78.401 78.401 0 0 0-4.405 6.253c-.207-1.382.099-2.301-4.582-2.259-4.68.043-9.396-3.359-2.77-7.19 6.625-3.831 35.285-9.933 41.161-5.947 5.876 3.986-12.409 6.373-12.409 6.373Z"/><path stroke="#fff" stroke-linecap="round" d="M445.403 335.917c-1.564 17.763.125 24.977.803 27.609.678 2.633 1.569 5.601-4.07 7.665m5.066-1.113c2.869 5.353 10.924 23.76 13.071 31.388 2.147 7.628 2.522 15.944-3.441 21.907m-48.696 4.468c7.23 14.754 20.044 47.674 20.657 53.896.765 7.777-5.323 25.159-6.188 43.218-.865 18.058 11.897 58.822 11.897 64.883 0 1.988-1.49 3.975-1.49 3.975m18.354-178.887c.688 7.481 6.46 20.374 8.75 34.602 1.115 6.926 4.001 22.794 2.463 27.328-1.539 4.534-3.604 8.024-2.333 14.76 1.272 6.736-2.101 35.599-2.785 43.358-.683 7.758-2.484 42.904-.598 50.889m.912-455.764c-5.8 3.107-36.302 24.306-44.552 26.473-1.78 3.22 1.979 10.292.322 16.109-1.989 6.986-13.442 10.543-22.246 8.169-8.969-2.418-20.735-15.838-23.709-16.391-2.744-.51-8.497 4.76-14.358 7.258-5.861 2.499-11.368 7.071-14.103 9.363-2.734 2.291-13.271 14.747-18.391 23.219-5.12 8.471-23.259 28.819-23.428 30.733-.168 1.915.702 3.8 5.7 9.787 3.564 4.267 12.838 8.451 18.234 10.346m0 0c2.174.763 3.477 1.368 3.895 1.127 1.455-.836 1.352-.966 2.207-4.146.856-3.18 19.306-23.139 31.839-29.511m-37.941 32.53c-5.286 4.244-17.538 14.698-23.113 21.538-6.969 8.55-15.77 11.754-27.5 23.382-11.73 11.627-17.679 15.106-23.737 18.41m206.377-186.447c.784-12.833 19.434-63.044 19.984-68.552m14.868-2.2c0 4.958-2.373 23.78-2.753 28.087-.379 4.307-3.46 46.875-7.517 52.426-3.246 4.44-12.598 17.888-16.614 23.403m-12.836-27.949c6.844 8.56 13.757 32.228 11.635 35.418-2.123 3.189-5.651 2.688-10.9 6.301-7.02 4.832-10.519 13.86-9.373 19.146 1.147 5.286 7.87 20.148 8.969 29.891 1.1 9.743-9.544 52.182-9.749 66.271-.204 14.089 13.423 37.895 7.397 39.655-3.754 1.097-8.198.041-23.796 7.131-12.117 5.508-32.495 3.856-40.756-4.406-6.238-6.238-14.32-3.128-19.827-1.652-12.117 3.247-26.644-18.088-28.141-19.961-2.489-3.113 22.449-28.408 25.955-32.922-2.199-2.485-6.776-1.105-7.177-4.396-.401-3.291 10.031-6.256 8.812-9.914-1.102-3.304-3.81-1.101-7.16-1.101-2.754 0-6.058-3.305-2.754-8.261 1.652-2.862 4.284-5.925 1.102-12.668-3.183-6.743-6.284-7.77-8.438-9.889m-46.556 4.461c-5.368 7.365-13.914 14.209-20.121 19.329-6.206 5.121-32.373 38.161-39.443 43.929"/><path stroke="#fff" stroke-linecap="round" d="M336.115 318.028a610.755 610.755 0 0 0-19.378 16.895c-6.466 5.884-27.726 30.882-26.095 33.241 1.631 2.359 7.613 22.108 26.741 24.104 17.402 1.816 28.019 21.649 31.65 22.162 3.632.512 24.315-24.991 28.31-29.84 3.996-4.85 8.17-1.787 9.723-2.228 1.553-.441 5.342-6.134 7.467-8.162"/><path stroke="#fff" stroke-linecap="round" d="M379.346 386.105c1.942 5.683 8.79 33.23 9.75 38.275.959 5.045 3.264 13.702 4.66 17.379m0 0c-1.472-2.55.011-4.171 3.573-7.734 4.69-4.689 22.246-14.685 31.861-17.211 9.615-2.526 23.969-3.839 28.139 0 2.94 2.706-.85 7.249-3.478 9.044m-60.095 15.901c2.018 3.495 14.41 3.609 17.617 2.75"/><path stroke="#fff" stroke-linecap="round" stroke-linejoin="round" d="M387.297 373.185c4.763-2.423 24.467-6.452 31.474-6.207M281.439 575.543c-6.683-21.22 2.597-48.242 19.894-56.763m-41.498 31.591c-1.228-10.854 3.676-22.545 10.447-24.509m130.135-148.204c3.402 2.725 6.219 7.42 6.219 7.42m-309.23 34.71c-3.06-1.906-1.61-5.568-1.61-5.568m11.523 3.943c-4.031-2.732-1.77-7.709-1.77-7.709m9.306 5.676c-4.178-2.668-1.355-7.664-1.355-7.664m291.19-34.919c3.407.639 6.957 2.738 6.957 2.738m-73.542-42.871c4.79 5.235 10.027 5.227 10.027 5.227m-54.201-86.92c-4.687-.894-7.778 1.201-7.778 1.201m39.959 79.82c-8.213 6.91-15.338 16.592-15.338 16.592m29.065 1.305c-1.611-3.577-5.062-10.129-8.692-12.824"/><path fill="#fff" stroke="#fff" stroke-linecap="round" stroke-linejoin="round" d="m412.145 157.03.861 7.95c-11.298 7.454-23.978 4.266-29.49-9.503 8.752 8.51 22.02 11.569 28.629 1.553Z"/><path stroke="#fff" stroke-linecap="round" stroke-linejoin="round" d="M211.092 319.052s-4.406 6.609-7.16 12.668c-.551 2.203-2.225 12.55-1.101 14.319 1.124 1.77 3.544.051 4.956-2.754 1.411-2.804.001-4.406 2.755-11.565 4.406-8.813 12.59-14.938 15.755-14.582 3.165.355-2.559 10.412-5.291 12.929-2.732 2.518-3.855 5.508-1.188 8.08 1.18 1.603 9.722-8.294 12.753-11.385 3.032-3.091 14.32-8.262 14.32-8.262m-44.611 5.509c-5.095 9.134-6.231 13.101-6.172 14.417.058 1.316 0 7.613 0 7.613m-.437-19.827c-3.427 5.38-4.521 9.881-4.562 10.788-.041.906.707 7.938.707 7.938"/><path stroke="#fff" stroke-linecap="round" stroke-linejoin="round" d="M189.063 343.836c-1.101-4.956-1.974-10.244-1.101-13.218.872-2.974 6.859-12.698 7.71-13.218.851-.52 4.544-2.081 4.957-3.305.413-1.223 3.835-3.886 5.508-4.406 1.672-.52 20.984-5.957 22.905-5.996 1.92-.039 9.038-.001 9.038-.001"/><path stroke="#fff" d="M473.454 63.61c.545-3.878 0-8.31-.715-9.743-2.795-5.596-9.602-10.826-11.888-13.18-2.286-2.354-5.487-4.237-5.944-6.59-.457-2.354-.915-17.417 0-20.712.914-3.296 4.571-9.415 5.944-11.298 1.372-1.883 2.744-.941 2.744 0 0 1.412-4.115 10.827-4.115 11.768 0 .942.914 5.65.914 7.532v3.766s2.835 6.684 5.03 7.06c2.743.472 1.956-6.096 2.286-8.472.457-3.295-.457-4.237 0-6.12.665-2.74 1.372-3.965 3.201-3.295 1.284.47 2.086 5.93 2.543 8.283.633 3.264.245 5.57 4.36 8.865s6.346 11.028 8.175 13.852c1.829 2.825 2.18 9.974 2.18 16.068"/><path stroke="#fff" stroke-linecap="round" stroke-linejoin="round" d="M394.75 148.339c1.059 1.241 3.495 3.721 6.46 3.721 2.964 0 5.187-2.126 5.716-3.189m-3.706-5.316c2.647 0 5.824-1.063 6.353-2.658.529-1.594-1.588-3.189-2.118-5.847-.519-2.606.388-5.316.53-5.847"/><path stroke="#fff" stroke-linecap="round" stroke-linejoin="round" d="M372.958 118.486c4.984-13.872 20.486-21.086 32.114-21.086 11.627 0 20.486 6.659 20.486 17.202 0 10.543-2.215 8.878-2.215 12.207 0 3.329.79 6.929-1.139 14.142-2.153 8.053-12.021 22.041-21.988 22.041-11.628 0-22.902-13.452-23.936-17.317-1.661-6.212 0-9.948-2.215-10.543-2.215-.594-5.537 0-8.305-4.439-2.769-4.439-2.769-14.981 2.768-14.981s3.877 4.993 6.091 7.213c1.662 1.665 4.43-.555 4.984-2.22"/><path stroke="#fff" stroke-linecap="round" stroke-linejoin="round" d="M412.639 125.228c2.104-2.788 6.313-3.345 8.944-2.788m-21.864 1.793c-2.154-2.84-8.613-4.969-12.92 0m-5.963-7.488c8.868 1.725 17.182-1.15 19.953-2.875 2.771-1.725 7.759-6.325 8.868-11.5"/><path stroke="#fff" stroke-linecap="round" stroke-linejoin="round" d="M369.942 116.283c0-7.826 11.007-27.39 32.469-27.39 13.758 0 29.168 11.179 22.564 25.154m-57.784.559c-3.853-12.857.924-29.565 17.061-35.217 15.959-5.59 36.321 1.678 38.522 17.888"/><path fill="#fff" stroke="#fff" stroke-linecap="round" stroke-linejoin="round" d="M415.999 129.5a1.507 1.507 0 0 1 1.061.44 1.496 1.496 0 0 1 .325 1.635 1.5 1.5 0 0 1-2.448.486 1.5 1.5 0 0 1 1.062-2.561Zm-22 0a1.507 1.507 0 0 1 1.061.44 1.496 1.496 0 0 1 .325 1.635 1.5 1.5 0 0 1-2.448.486 1.5 1.5 0 0 1 1.062-2.561Z"/><path stroke="#fff" stroke-linecap="round" stroke-linejoin="round" d="M462.79 22.193c1.057-1.469 1.842-7.973 4.742-10.247 2.062-1.543 4.621-1.87 4.621-1.87m-12.118 8.262c2.798-6.697 4.341-8.644 5.193-9.363.853-.719 5.272-1.652 5.272-1.652m-89.664 269.83c2.193 1.249 15.53-6.612 26.833-21.735m-24.845 26.777s11.299.533 19.122-1.692c7.648-2.175 18.643-9.184 18.643-9.184m-41.739 19.876a36.854 36.854 0 0 0 6.956 4.969m39.532 16.492c2.722-2.492 4.679-5.456 5.758-8.72m-24.485-110.552c2.757.348 4.87-.065 6.215-1.215m11.475-12.972c2.839-10.096 2.843-17.047.01-20.452m-60.659 20.418c7.461 7.37 14.32 11.012 19.277 11.563m-11.728 103.542c-.326 6.595 3.434 14.065 3.434 14.065"/><path stroke="#00A140" stroke-linecap="round" stroke-linejoin="round" d="M355.069 221.689a55.73 55.73 0 0 0 5.707-7.831m1.775 7.46c2.679-1.959 5.867-3.485 9.543-4.568m-2.737 12.465c-6.527-1.47-14.515 1.321-14.515 1.321"/><path stroke="#fff" stroke-linecap="round" stroke-linejoin="round" d="M376.906 147.216c.551 7.16 2.343 16.685-7.16 18.175"/><path fill="#2C2C2C" d="M356.582 605.742c-7.35 4.229-16.063 5.507-24.513 3.596-8.45-1.911-16.059-6.881-21.406-13.981-5.348-7.1-8.07-15.846-7.657-24.605.413-8.759 3.933-16.933 9.901-22.996-2.333 7.669-2.043 16.026.824 23.726 2.866 7.7 8.143 14.292 14.979 18.716 6.835 4.423 14.832 6.419 22.7 5.666 7.868-.754 15.15-4.212 20.671-9.818-2.539 8.4-8.059 15.414-15.499 19.696Z"/><path stroke="#fff" d="m304.29 586.408 1.738-3.474m19.974-13.025c3.473 0 8.436-1.563 10.421-2.605m-34.735-.869 2.605 3.474m16.815-22.935-4.659 11.428m21.225-14.545 5.694 8.312m17.085 5.194 4.659-4.155m-2.072 21.298 7.249 5.714m-23.814 12.987a462.98 462.98 0 0 0 1.553-7.272c.371-1.9.716-3.805 1.036-5.715m6.212 21.818c3.106-.519 8.801-3.636 10.871-5.714m-45.556-9.87c1.553 2.597 7.247 8.831 8.283 9.351"/><path fill="#fff" d="m338.711 566.372 5.162-12.925c2.065 0 6.71.724 8.775 1.551 2.581 1.034 5.161 2.068 6.194 3.102.826.828 1.72 9.996 2.065 14.477l-12.389 5.17-9.807-11.375Zm-28.389-3.102c-2.581 2.068-4.646 5.171-5.162 6.722.344 3.619 1.239 11.063 2.065 11.891 1.032 1.034 11.356 3.619 12.388 3.102 1.032-.517 4.645-13.442 4.645-14.993 0-1.241-5.849-6.894-8.774-9.824-1.033.517-3.55 1.811-5.162 3.102Zm19.614 47.565v-13.442c.413 0 9.98-2.24 14.969-3.102 2.753 2.24 8.259 6.928 8.259 7.755 0 1.034-7.226 9.823-10.323 10.34-2.46.411-10.043-1.013-12.845-1.54l-.06-.011Zm-7.742-65.66L316 542.073c2.753-1.723 9.291-5.48 13.42-6.721 4.13-1.241 11.528-1.034 14.969-1.034l-8.259 7.755-13.936 3.102Zm49.036 51.701-5.162-2.585 5.162-13.959 7.742-7.755c-.344 3.446-1.342 11.27-2.58 14.993-1.239 3.722-3.958 7.755-5.162 9.306Zm-5.678-44.98-4.645-11.891c2.58 2.241 8.258 7.342 10.323 9.823 2.065 2.482 4.301 7.928 5.162 10.34l-10.84-8.272Z"/><path stroke="#fff" d="m338.711 566.372 5.162-12.925c2.065 0 6.71.724 8.775 1.551 2.581 1.034 5.161 2.068 6.194 3.102.826.828 1.72 9.996 2.065 14.477l-12.389 5.17-9.807-11.375Zm-28.389-3.102c-2.581 2.068-4.646 5.171-5.162 6.722.344 3.619 1.239 11.063 2.065 11.891 1.032 1.034 11.356 3.619 12.388 3.102 1.032-.517 4.645-13.442 4.645-14.993 0-1.241-5.849-6.894-8.774-9.824-1.033.517-3.55 1.811-5.162 3.102Zm19.614 47.565v-13.442c.413 0 9.98-2.24 14.969-3.102 2.753 2.24 8.259 6.928 8.259 7.755 0 1.034-7.226 9.823-10.323 10.34-2.46.411-10.043-1.013-12.845-1.54l-.06-.011Zm-7.742-65.66L316 542.073c2.753-1.723 9.291-5.48 13.42-6.721 4.13-1.241 11.528-1.034 14.969-1.034l-8.259 7.755-13.936 3.102Zm49.036 51.701-5.162-2.585 5.162-13.959 7.742-7.755c-.344 3.446-1.342 11.27-2.58 14.993-1.239 3.722-3.958 7.755-5.162 9.306Zm-5.678-44.98-4.645-11.891c2.58 2.241 8.258 7.342 10.323 9.823 2.065 2.482 4.301 7.928 5.162 10.34l-10.84-8.272Z"/><path stroke="#fff" d="M339.897 612.828c21.786 0 39.446-17.66 39.446-39.446 0-21.785-17.66-39.446-39.446-39.446-21.785 0-39.446 17.661-39.446 39.446 0 21.786 17.661 39.446 39.446 39.446Z"/><path fill="#fff" d="m434.257 202.625-3.176.509-1.037.167a.985.985 0 0 0-.799 1.207l.388 1.64a.989.989 0 0 0 1.138.745.986.986 0 0 1 1.147.785l1.123 5.8a.746.746 0 0 1-.642.884.74.74 0 0 0-.628.942l.395 1.423c.146.528.685.847 1.211.718l5.072-1.241a.986.986 0 0 0 .73-1.155l-.32-1.613a.822.822 0 0 0-.359-.535.828.828 0 0 0-.634-.116.84.84 0 0 1-.644-.123.836.836 0 0 1-.354-.552l-1.455-8.648a1.015 1.015 0 0 0-1.156-.837Zm-9.499 2.232-3.452.508-1.13.167a.963.963 0 0 0-.384.144.99.99 0 0 0-.424 1.08l.422 1.667c.13.515.636.845 1.154.753l.109-.019a1.016 1.016 0 0 1 1.163.796l1.219 5.858a.762.762 0 0 1-.669.922.76.76 0 0 0-.559.339.776.776 0 0 0-.094.648l.43 1.454c.152.512.676.822 1.192.705l5.485-1.25a.984.984 0 0 0 .742-1.172l-.338-1.588a.9.9 0 0 0-1.064-.698.896.896 0 0 1-.687-.138.897.897 0 0 1-.383-.587l-1.591-8.763a1.011 1.011 0 0 0-1.141-.826Z"/><path fill="#2C2C2C" d="M140.829 390.577s-5.466-.993-11.429-.993c-6.957 0-10.605 5.697-15.991 9.451-5.387 3.755-11.352-.286-23.762 5.952-8.804 4.413-16.848 17.533-17.89 24.846 0 0-3.34-.778-3.972-1.491-4.97-5.611 2.638-16.296 9.936-23.355 7.298-7.058 10.932-8.447 19.38-10.435 6.369-1.498 10.395-.669 14.907-3.478 3.664-2.241 7.951-8.944 14.907-8.944 3.479 0 6.519 1.237 8.945 2.512 2.426 1.274 3.975 3.948 4.969 5.935Zm220.304-10.629c-12.567 8.472-17.231 22.575-11.932 21.285 5.298-1.289 8.627-5.096 12.94-8.365 4.314-3.269 8.593-10.186 8.944-14.722.329-4.038-2.933-2.926-9.952 1.802Z"/><path fill="#fff" d="M134.463 413.926a.504.504 0 0 0 .396-.389.512.512 0 0 0-.071-.376.518.518 0 0 0-.316-.215.512.512 0 0 0-.195-.002l.186.982Zm8.121-19.746.498-.045c-.185-2.023-1.054-5.134-2.362-8.202-1.308-3.065-3.087-6.161-5.133-8.113l-.345.362-.345.362c1.902 1.814 3.616 4.765 4.903 7.781 1.286 3.014 2.114 6.019 2.286 7.901l.498-.046Zm-7.342-15.998.345-.362c-2.576-2.457-5.881-3.443-8.854-3.678-2.964-.233-5.662.275-7.084.879l.195.46.196.46c1.249-.53 3.782-1.025 6.615-.802 2.825.223 5.883 1.155 8.242 3.405l.345-.362Zm-15.398-2.701-.195-.46c-.772.328-1.555 1.034-2.345 1.864-.797.837-1.674 1.881-2.6 2.923-1.883 2.117-4.035 4.297-6.593 5.383l.196.46.195.46c2.785-1.182 5.066-3.521 6.949-5.638.956-1.075 1.795-2.077 2.577-2.899.789-.828 1.448-1.393 2.012-1.633l-.196-.46Zm-11.537 10.17-.196-.46c-1.285.546-2.81.919-4.529 1.242-1.733.327-3.586.591-5.6.944-3.988.697-8.402 1.71-12.65 4.113l.248.435.246.435c4.095-2.317 8.373-3.306 12.328-3.998 1.957-.343 3.887-.621 5.613-.946 1.74-.328 3.349-.716 4.735-1.305l-.195-.46Zm-22.727 6.274-.247-.435c-4.271 2.417-10.342 8.811-14.69 15.703-2.18 3.454-3.947 7.066-4.84 10.404-.891 3.327-.935 6.465.457 8.895l.433-.249.434-.248c-1.2-2.096-1.22-4.921-.36-8.139.86-3.208 2.573-6.725 4.72-10.129 4.306-6.824 10.27-13.064 14.339-15.367l-.246-.435Zm-18.887 34.318-.433.249c1.386 2.421 3.467 3.507 5.893 3.703 2.392.193 5.115-.476 7.865-1.512 2.758-1.039 5.598-2.468 8.234-3.841 2.65-1.38 5.077-2.694 7.057-3.535l-.195-.46-.196-.461c-2.027.861-4.508 2.204-7.128 3.569-2.635 1.372-5.427 2.776-8.124 3.792-2.705 1.019-5.261 1.627-7.432 1.451-2.136-.172-3.902-1.099-5.107-3.203l-.434.248Zm28.42-5.396.196.46c1.552-.659 4.286-1.364 7.675-2.074 3.375-.708 7.36-1.412 11.388-2.078 8.038-1.328 16.278-2.505 20.091-3.229l-.093-.491-.093-.491c-3.803.722-11.985 1.889-20.068 3.225-4.033.666-8.034 1.373-11.431 2.085-3.383.709-6.207 1.43-7.86 2.132l.196.461Z"/><path stroke="#fff" stroke-linecap="round" d="M295.369 377.161c-10.302 6.735-42.841 25.069-46.004 24.244-3.164-.824-6.712-10.565-17.792-12.633-11.08-2.067-92.102 3.742-98.197 9.756-6.096 6.014-2.467 11.772-.702 13.783 1.765 2.011 11.142 2.837 23.636 2.081 12.494-.756 45.485 7.183 57.224 8.751 11.74 1.568 27.012 13.732 47.17 15.617 16.126 1.507 65.511-18.657 83.362-28.803"/><path fill="#fff" stroke="#fff" stroke-linecap="round" stroke-linejoin="round" d="M178.746 390.897s-2.412 2.76-1.641 13.033c.332 4.417 2.405 9.702 4.977 13.476-2.021-.058-8.712-1.274-8.712-1.274-2.572-3.777-3.764-6.774-4.407-11.408-.643-4.633-.814-9.206.638-13.313l9.145-.514Z"/><path fill="#00A140" stroke="#00A140" stroke-linecap="round" stroke-linejoin="round" d="M196.089 389.436s-2.493 3.167-2.719 14.833c-.097 5.015 1.636 11.86 4.191 16.129-2.324-.051-9.653-2.24-9.653-2.24-2.555-4.273-3.962-7.679-4.626-12.361-.678-5.427.091-11.031 2.21-15.709 3.348-.207 10.597-.652 10.597-.652Z"/><path fill="#fff" stroke="#fff" stroke-linecap="round" stroke-linejoin="round" d="M178.746 390.897s-2.412 2.76-1.641 13.033c.332 4.417 2.405 9.702 4.977 13.476-2.021-.058-8.712-1.274-8.712-1.274-2.572-3.777-3.764-6.774-4.407-11.408-.643-4.633-.814-9.206.638-13.313l9.145-.514Z"/><path fill="#FF006B" stroke="#FF006B" stroke-linecap="round" stroke-linejoin="round" d="M196.089 389.436s-2.493 3.167-2.719 14.833c-.097 5.015 1.636 11.86 4.191 16.129-2.324-.051-9.653-2.24-9.653-2.24-2.555-4.273-3.962-7.679-4.626-12.361-.678-5.427.091-11.031 2.21-15.709 3.348-.207 10.597-.652 10.597-.652Z"/><path fill="#fff" stroke="#fff" stroke-linecap="round" stroke-linejoin="round" d="M424.061 543.126s4.304 3.978 15.908 3.978c5.466 0 12.647-.906 16.895-3.479l-.497 10.147s-10.435 2.276-15.901 2.276c-5.466 0-9.795-.826-14.417-2.278-.994-2.693-1.988-10.644-1.988-10.644Z"/><path fill="#FF006B" stroke="#FF006B" stroke-linecap="round" stroke-linejoin="round" d="M422.188 525.792s3.915 2.868 17.723 3.82c5.936.41 13.91-1.033 18.782-3.516.098 2.491-1.364 10.594-1.364 10.594-4.876 2.482-9.431 3.416-14.921 3.843-6.37.398-13.661-.807-19.336-3.366-.475-3.606-.884-11.375-.884-11.375Z"/><path stroke="#fff" stroke-linecap="round" stroke-linejoin="round" d="M130.645 413.51s-15.648 16.282-19.438 10.05c-3.962-6.5 18.92-11.753 18.92-11.753"/><path stroke="#fff" stroke-linecap="round" stroke-linejoin="round" d="M130.726 413.613c.131 7.472-5.131 19.856-8.585 20.735-5.095 1.334-6.353-7.72-.99-12.57m348.837 171.133s21.635-6.472 21.867.818c.25 7.609-21.865-.817-21.865-.817"/><path stroke="#fff" stroke-linecap="round" stroke-linejoin="round" d="M469.968 592.783c3.564-6.569 14.239-14.76 17.678-13.825 5.091 1.346 1.731 9.847-5.324 11.429M270.485 432.621c-5.016 1.989-10.065 2.498-8.25.724 1.814-1.773 6.299-2.648 4.959-4.408-1.34-1.76-11.53 1.88-11.53 1.88m193.762 53.248c1.353-3.439 3.62-5.711 3.768-3.628.147 2.083-1.61 4.438.138 5.344 1.747.905 4.741-5.76 4.741-5.76"/><path fill="#2C2C2C" d="M392.246 102.601c-9.5 3.331-16.074 10.822-12.964 12.065 3.11 1.242 11.167 1.656 16.96-.867 5.794-2.524 10.915-8.948 11.927-11.8 1.013-2.85-6.423-2.73-15.923.602Zm33.644 507.482c-.496 1.987-.992 7.453 2.983 13.416 0 0 2.485-1.987 4.472-2.484 1.988-.497 23.545-1.532 30.809-3.479 11.925-3.195 32.796-16.894 38.25-16.894 5.454 0 7.95 2.981 7.95 2.484 0-.497-1.314-3.846-2.307-4.84-.994-.994-8.418-2.602-14.588-.626-12.41 3.975-27.306 14.41-42.225 14.41-21.367 0-24.847-3.975-25.344-1.987Z"/><path stroke="#fff" d="M454.852 593.86c0-6.708 2.516-10.482 6.29-10.482 3.773 0 10.062 0 8.88 9.897m-7.204 4.778c2.096-4.612 10.033-6.452 14.461-3.619m-8.592 5.296c3.354-5.451 10.063-6.289 14.675-4.612"/><path fill="#E64A4A" d="M476.919 623.208c-.112-.419-.269-1.257-.269-1.677l.269 1.677Z"/><path stroke="#fff" d="M477.909 599.73c2.516-4.193 5.451-5.451 10.482-5.032 5.031.42 10.298.141 15.932 1.677 4.611 1.258 6.289 4.612 6.289 7.547 0 2.348-2.795 4.612-4.193 5.451.559.978.838 3.186-.839 4.192-2.096 1.258-3.773-.419-4.612-2.515m1.678 2.096c-2.097 1.258-6.457 3.857-7.128 4.193.419 1.677.252 4.36-2.096 5.031-2.935.838-3.774-1.258-5.031-2.935l-4.612 1.677c0 1.677-.42 4.05-2.516 4.612-2.096.562-3.781-.419-4.343-2.516m0 0c-.112-.419-.269-1.257-.269-1.677l.269 1.677Zm0 0c-8.235 1.258-9.493 1.677-13.685 2.516-3.354.671-8.944 1.397-11.32 1.677.139 1.677-.336 5.031-3.354 5.031-3.019 0-3.494-2.795-3.354-4.192l-4.193.419c.419 1.397.503 4.192-2.516 4.192s-3.214-2.515-2.935-3.773c-1.817-.279-6.037-2.012-8.385-6.708-2.935-5.87-1.258-14.255 0-18.448 1.257-4.192 3.1-10.062 4.829-10.062 2.981 0 2.718 6.289 9.845 5.45 7.128-.838 12.997-4.192 12.997-5.45"/><path stroke="#fff" d="M429.695 625.724c1.258-2.935 8.386-2.869 12.997-3.354 7.966-.839 12.998-1.187 15.932-1.677 5.032-.838 14.675-3.354 27.253-10.481 3.773-2.138 10.481-6.709 16.77-7.129 3.765-.251 6.708.838 7.547 2.097"/><path fill="#fff" d="M117.138 380.696c1.542-1.07 2.158-2.852 1.375-3.98-.783-1.127-2.667-1.173-4.209-.102-1.542 1.07-2.158 2.852-1.375 3.979.783 1.128 2.667 1.174 4.209.103ZM127.645 375.163c.122 1.367-1.118 2.594-2.768 2.741-1.651.146-3.087-.843-3.209-2.209-.121-1.367 1.118-2.594 2.769-2.741 1.65-.147 3.087.842 3.208 2.209ZM70.607 409.842c1.01.43 2.265-.246 2.802-1.51.536-1.263.152-2.635-.859-3.064-1.01-.429-2.264.247-2.8 1.51-.537 1.263-.153 2.635.857 3.064ZM75.24 401.585c.825.725 2.228.476 3.134-.555.905-1.032.97-2.455.145-3.179-.825-.725-2.228-.476-3.133.555-.906 1.032-.97 2.455-.146 3.179Z"/><path stroke="#fff" d="M105.549 509.339c9.561-.454 70.34-.908 80.499 0 8.127.726 30.14-3.03 40.299-3.333-3.287-.757-9.622-3.36-8.665-7.719.956-4.359 12.549 3.33 18.226 7.719-2.988-4.389-8.605-13.713-7.171-15.892 1.434-2.18 10.757 9.687 15.239 15.892.896-1.665 3.167-5.539 5.079-7.719 1.912-2.179 2.39 4.238 2.39 7.719l61.254-3.632c-4.084-2.573-12.072-8.628-11.355-12.26.466-2.359 12.849 6.66 18.824 12.26-1.593-4.087-4.302-13.259-2.39-17.255.896-1.873 9.86 17.255 9.86 17.255s-4.78-17.255-1.195-17.255c2.869 0 4.482 11.503 5.976 17.255l77.239 3.632m68.572.32c33.79 1.988 52.673-.165 57.642 0-4.803-1.987-14.212-6.559-13.417-8.944.796-2.385 13.251 4.969 19.38 8.944-1.822-2.153-5.168-6.957-3.975-8.944 1.192-1.988 6.459 5.135 8.944 8.944h19.876c-1.656-1.656-4.77-5.366-3.975-6.956.795-1.591 5.632 3.975 7.951 6.956-.828-2.981-1.988-8.944 0-8.944 1.987 0 3.809 5.963 4.472 8.944 0-2.981.497-8.944 2.484-8.944 1.988 0 2.485 5.963 2.485 8.944 0 0 6.46.994 10.435 0 3.975-.993 9.441 0 9.441 0M127.412 633.069c14.485-1.624 27.936-1.299 31.04-1.299 3.104 0-5.854-7.484-3.794-10.396 1.38-1.949 9.312 9.097 9.312 9.097s-3.104-5.978-.69-7.797c1.38-1.04 5.519 2.815 6.208 7.797-.46-4.115-1.448-8.447 1.035-8.447 1.035 0 3.564 3.682 3.449 7.472 3.104.758 10.829 2.274 16.899 2.274h12.071m322.992-6.01c13.151-2.03 11.449-1.127 14.267-1.127 2.818 0-5.206-4.178-3.335-7.817 1.252-2.437 8.345 6.193 8.345 6.193s-7.202-10.379-5.01-12.653c1.253-1.299 9.394 6.426 10.02 12.653-.418-5.144-1.315-10.559.939-10.559.94 0 3.236 4.603 3.131 9.34 2.819.948 8.866 1.219 14.377 1.219h14.907M33 571.452c17.374-2.057 15.126-1.142 18.849-1.142 3.723 0-9.504-2.869-7.033-6.556 1.655-2.468 13.651 4.911 13.651 4.911s-14.577-9.655-11.681-11.958c1.654-1.317 17.473 5.649 18.3 11.958-.552-5.212-6.18-10.448-3.201-10.448 1.24 0 8.717 4.414 8.579 9.213 3.894.352 11.115 1.359 15.71 1.235 9.095-.246 12.176 0 18.381 0m48.697 1.202c8.558-.905 9.414 0 18.399 0 8.986 0 6.419 1.585 12.409 1.585m5.049-.283c7.525 2.443 8.476.991 16.566 1.936 8.091.946 6.095-2.022 11.488-1.392m398.296 2.438c4.605 2.101 5.264.615 10.288 1.202s3.904-2.278 7.254-1.887"/></svg>